<svg width="273" height="36" viewBox="0 0 273 36" fill="none" xmlns="http://www.w3.org/2000/svg">
<path fill-rule="evenodd" clip-rule="evenodd" d="M114.189 25.536C106.367 25.536 100.678 20.16 100.678 12.768C100.678 5.37599 106.367 0 114.291 0C118.558 0 122.215 1.536 124.552 4.41599L124.755 4.70399L120.59 8.54399L120.285 8.25599C118.761 6.43199 116.729 5.56799 114.494 5.56799C110.126 5.56799 107.078 8.54399 107.078 12.864C107.078 17.184 110.126 20.16 114.494 20.16C116.831 20.16 118.761 19.296 120.285 17.472L120.59 17.184L124.755 21.024L124.552 21.312C122.215 24.192 118.558 25.728 114.189 25.728V25.536ZM54.2496 25.152H41.3474V0.384024H53.64C59.6339 0.384024 63.1896 2.88002 63.1896 7.00801C63.1896 9.21601 62.1737 11.04 60.4467 12.192C62.9865 13.248 64.4088 15.456 64.4088 18.24C64.4088 22.656 60.853 25.152 54.3512 25.152H54.2496ZM47.6461 20.256H53.8432C57.5005 20.256 57.9069 18.816 57.9069 17.664C57.9069 15.936 56.5862 15.072 53.8432 15.072H47.6461V20.256ZM47.6461 10.272H52.8273C55.3671 10.272 56.6878 9.40801 56.6878 7.77601C56.6878 7.20001 56.6878 5.37602 52.8273 5.37602H47.6461V10.272ZM74.3649 25.152H67.9646V0.384024H74.3649V25.152ZM85.5401 25.152H91.8388V5.66402H99.6614V0.384024H77.7175V5.66402H85.5401V25.152ZM125.669 12.768C125.669 20.16 131.46 25.536 139.384 25.536C147.308 25.536 153.099 20.16 153.099 12.768C153.099 5.37599 147.308 0 139.384 0C131.46 0 125.669 5.37599 125.669 12.768ZM132.171 12.768C132.171 8.54399 135.219 5.47199 139.384 5.47199C143.549 5.47199 146.597 8.54399 146.597 12.768C146.597 16.992 143.549 20.064 139.384 20.064C135.219 20.064 132.171 16.992 132.171 12.768ZM162.546 25.152H156.146V0.384024H162.546V25.152ZM184.389 25.152H189.57V0.384024H183.272V14.208L171.792 0.384024H166.61V25.152H172.909V11.328L184.389 25.152ZM199.526 25.152H193.126V0.384024H199.526V25.152ZM202.879 22.656C205.215 24.384 209.177 25.536 213.038 25.536V25.632C220.86 25.632 223.705 21.408 223.705 17.856C223.705 12.527 218.714 11.3485 214.669 10.3932L214.562 10.368C211.92 9.79199 209.584 9.21599 209.584 7.67999C209.584 6.14399 211.108 5.27999 213.851 5.27999C215.984 5.27999 218.219 5.95199 220.352 7.10399L220.759 7.29599L222.791 2.4L222.486 2.208C220.251 0.767999 217.102 0 213.851 0C207.349 0 203.183 3.072 203.285 7.77599C203.285 13.2009 208.278 14.3798 212.323 15.3352L212.428 15.36C215.07 15.936 217.406 16.512 217.406 18.048C217.406 19.968 214.765 20.256 213.139 20.256C210.396 20.256 207.349 19.392 205.317 17.856L204.911 17.568L202.676 22.464L202.879 22.656ZM239.35 25.152H233.051V5.66402H225.229V0.384024H247.172V5.66402H239.35V25.152ZM250.017 5.08779C250.017 5.56778 250.931 5.95178 250.931 5.95178C251.439 5.95178 251.846 5.56778 251.846 5.08779C251.846 4.60779 251.439 4.22379 250.931 4.22379C250.424 4.22379 250.017 4.60779 250.017 5.08779ZM256.011 5.95202C254.183 5.95202 252.964 4.80002 252.964 3.16802C252.964 1.53602 254.284 0.384024 256.011 0.384024C257.027 0.384024 257.84 0.768024 258.348 1.34402L257.332 2.30402C257.332 2.30402 256.519 1.63202 256.113 1.63202C255.199 1.63202 254.487 2.30402 254.487 3.16802C254.487 4.03202 255.199 4.70402 256.113 4.70402C256.621 4.70402 257.027 4.51202 257.332 4.12802L258.348 4.89602C257.84 5.56802 257.027 5.95202 256.011 5.95202ZM258.855 3.16802C258.855 4.80002 260.176 5.95202 262.005 5.95202C263.834 5.95202 265.154 4.80002 265.154 3.16802C265.154 1.53602 263.834 0.384024 262.005 0.384024C260.176 0.384024 258.855 1.53602 258.855 3.16802ZM260.481 3.16802C260.481 2.30402 261.091 1.63202 262.005 1.63202C263.021 1.63202 263.63 2.30402 263.63 3.16802C263.63 4.03202 262.919 4.70402 262.005 4.70402C261.091 4.70402 260.481 4.03202 260.481 3.16802ZM266.171 5.66409V0.576097V0.47994H267.39L269.32 3.55194L271.25 0.47994H272.469V5.85593H271.149V3.07194L269.726 5.27993H269.015L267.593 3.16794V5.85593H266.171V5.66409ZM40.6375 32.5651L40.6381 32.542C40.6896 34.3178 42.194 35.6157 44.0908 35.6157C45.1067 35.6157 45.9195 35.3277 46.529 34.7517L46.1227 34.3677C45.6147 34.9437 44.9036 35.1357 44.1924 35.1357C42.6685 35.1357 41.4494 34.0797 41.4494 32.5437C41.4494 31.0077 42.5669 29.9517 44.1924 29.9517C44.9036 29.9517 45.6147 30.2397 46.1227 30.7197L46.529 30.3357C45.9195 29.7597 45.0052 29.4717 44.0908 29.4717C42.0954 29.4717 40.6879 30.7679 40.6381 32.542C40.6372 32.5107 40.6367 32.4793 40.6367 32.4477V32.6397L40.6368 32.6192L40.6371 32.5879L40.6375 32.5651ZM50.8974 33.6957L52.4213 35.7117V35.6157H53.1324L51.507 33.5037C52.5229 33.2157 53.0308 32.5437 53.0308 31.5837C53.0308 30.2397 52.0149 29.4717 50.3894 29.4717H47.9512V35.6157H48.6624V33.6957H50.3894H50.8974ZM50.3894 30.1437C51.7101 30.1437 52.4213 30.7197 52.4213 31.6797C52.4213 32.6397 51.7101 33.2157 50.3894 33.2157H48.6624V30.1437H50.3894ZM56.8912 33.5997V35.7117H56.1801V33.5997L53.5387 29.5677H54.2498L56.4849 33.0237L58.7199 29.5677H59.431L56.7896 33.5997H56.8912ZM61.2594 33.7917H62.9865C64.6119 33.7917 65.6278 33.0237 65.6278 31.6797C65.6278 30.3357 64.6119 29.5677 62.9865 29.5677H60.5483V35.7117H61.2594V33.7917ZM62.8849 30.1437C64.2056 30.1437 64.9167 30.7197 64.9167 31.6797C64.9167 32.6397 64.2056 33.2157 62.8849 33.2157H61.1578V30.1437H62.8849ZM68.0665 30.1437H65.8315V29.5677H71.1142V30.1437H68.7776V35.7117H68.0665V30.1437ZM75.0761 29.4717C73.0442 29.4717 71.6219 30.8157 71.6219 32.6397C71.6219 34.4637 73.0442 35.8077 75.0761 35.8077C77.1079 35.8077 78.5302 34.4637 78.5302 32.6397C78.5302 30.8157 77.1079 29.4717 75.0761 29.4717ZM75.0761 30.0477C76.7015 30.0477 77.819 31.1997 77.819 32.6397C77.819 34.1757 76.5999 35.2317 75.0761 35.2317C73.5522 35.2317 72.3331 34.1757 72.3331 32.6397C72.3331 31.1037 73.4506 30.0477 75.0761 30.0477ZM79.546 32.6397C79.546 32.607 79.5464 32.5744 79.5473 32.542C79.5989 34.3178 81.1033 35.6157 83.0001 35.6157C84.016 35.6157 84.8287 35.3277 85.4383 34.7517L85.0319 34.3677C84.524 34.9437 83.8128 35.1357 83.1017 35.1357C81.5778 35.1357 80.3587 34.0797 80.3587 32.5437C80.3587 31.0077 81.4762 29.9517 83.1017 29.9517C83.8128 29.9517 84.524 30.2397 85.0319 30.7197L85.4383 30.3357C84.8287 29.7597 83.9144 29.4717 83.0001 29.4717C81.0047 29.4717 79.5972 30.7679 79.5473 32.542C79.5464 32.5107 79.546 32.4793 79.546 32.4477V32.6397ZM86.7594 29.5677V33.1197H86.9626C86.9626 34.8477 87.9785 35.8077 89.604 35.8077C91.2294 35.8077 92.2454 34.8477 92.2454 33.1197V29.5677H91.5342V33.1197C91.5342 34.5597 90.8231 35.2317 89.5024 35.2317C88.1817 35.2317 87.4705 34.5597 87.4705 33.1197V29.5677H86.7594ZM98.747 35.7117L97.2231 33.6957H96.7152H94.9881V35.6157H94.277V29.4717H96.7152C98.3407 29.4717 99.3566 30.2397 99.3566 31.5837C99.3566 32.5437 98.8486 33.2157 97.8327 33.5037L99.4582 35.6157H98.747V35.7117ZM98.747 31.6797C98.747 30.7197 98.0359 30.1437 96.7152 30.1437H94.9881V33.2157H96.7152C98.0359 33.2157 98.747 32.6397 98.747 31.6797ZM104.03 33.6957L105.554 35.7117V35.6157H106.265L104.64 33.5037C105.656 33.2157 106.163 32.5437 106.163 31.5837C106.163 30.2397 105.148 29.4717 103.522 29.4717H101.084V35.6157H101.795V33.6957H103.522H104.03ZM103.522 30.1437C104.843 30.1437 105.554 30.7197 105.554 31.6797C105.554 32.6397 104.843 33.2157 103.522 33.2157H101.795V30.1437H103.522ZM112.462 35.1357V35.2317H108.601V32.9277H111.954V32.3517H108.601V30.1437H112.36V29.5677H107.89V35.7117H112.462V35.2317H112.563L112.462 35.1357ZM119.573 35.7117V29.5677H118.862V34.5597L114.697 29.5677H114.087V35.7117H114.798V30.7197L118.964 35.7117H119.573ZM121.199 32.6397C121.199 32.607 121.2 32.5744 121.201 32.542C121.252 34.3178 122.757 35.6157 124.653 35.6157C125.669 35.6157 126.482 35.3277 127.092 34.7517L126.685 34.3677C126.177 34.9437 125.466 35.1357 124.755 35.1357C123.231 35.1357 122.012 34.0797 122.012 32.5437C122.012 31.0077 123.13 29.9517 124.755 29.9517C125.466 29.9517 126.177 30.2397 126.685 30.7197L127.092 30.3357C126.482 29.7597 125.568 29.4717 124.653 29.4717C122.658 29.4717 121.25 30.7679 121.201 32.542C121.2 32.5234 121.2 32.5047 121.2 32.486L121.199 32.4477V32.6397ZM130.647 35.7117V33.5997H130.545L133.187 29.5677H132.476L130.241 33.0237L128.006 29.5677H127.294L129.936 33.5997V35.7117H130.647ZM142.939 29.5677V35.7117H142.33L138.165 30.7197V35.7117H137.454V29.5677H138.063L142.228 34.5597V29.5677H142.939ZM149.747 35.2317V35.1357L149.848 35.2317H149.747ZM145.886 35.2317H149.747V35.7117H145.175V29.5677H149.645V30.1437H145.886V32.3517H149.239V32.9277H145.886V35.2317ZM160.312 29.5677L158.077 35.7117H157.366L155.436 30.4317L153.505 35.7117H152.794L150.559 29.5677H151.27L153.201 34.8477L155.131 29.5677H155.74L157.671 34.9437L159.601 29.5677H160.312ZM161.227 34.4637L160.922 34.9437V35.0397C161.43 35.5197 162.344 35.8077 163.36 35.8077C164.985 35.8077 165.798 34.9437 165.798 34.0797C165.798 32.9081 164.654 32.6555 163.58 32.4183C162.63 32.2085 161.735 32.0108 161.735 31.1997C161.735 30.5277 162.242 30.0477 163.462 30.0477C164.071 30.0477 164.681 30.1437 165.29 30.5277L165.493 30.0477C164.985 29.6637 164.173 29.4717 163.462 29.4717C161.735 29.4717 161.023 30.3357 161.023 31.1997C161.023 32.4344 162.19 32.7041 163.274 32.9545C164.212 33.1714 165.087 33.3737 165.087 34.1757C165.087 34.7517 164.579 35.2317 163.36 35.2317C162.547 35.2317 161.227 34.4637 161.227 34.4637ZM175.245 35.8077L174.331 34.9437C173.823 35.5197 173.01 35.8077 172.198 35.8077C170.877 35.8077 169.963 35.1357 169.963 34.2717C169.963 33.5037 170.369 33.0237 171.588 32.3517C170.979 31.7757 170.775 31.3917 170.775 30.9117C170.775 30.1437 171.385 29.5677 172.401 29.5677C173.315 29.5677 173.925 30.0477 173.925 30.8157C173.925 31.3917 173.518 31.8717 172.502 32.4477L174.331 34.1757C174.331 34.1757 174.636 33.4077 174.738 33.0237L175.245 33.2157C175.144 33.7917 174.941 34.2717 174.636 34.6557L175.55 35.5197L175.245 35.8077ZM173.925 34.5597L171.995 32.6397C170.979 33.2157 170.674 33.5997 170.674 34.1757C170.674 34.8477 171.283 35.3277 172.299 35.3277C173.01 35.3277 173.62 35.1357 174.026 34.6557L173.925 34.5597ZM171.385 30.8157C171.385 30.8157 171.487 31.3917 172.096 31.9677C173.01 31.4877 173.315 31.1037 173.315 30.7197C173.315 30.3357 173.01 29.9517 172.401 29.9517C171.791 29.9517 171.385 30.3357 171.385 30.8157ZM178.903 30.1437H181.138V35.7117H181.849V30.1437H184.186V29.5677H178.903V30.1437ZM189.977 35.1357V35.2317H186.116V32.9277H189.469V32.3517H186.116V30.1437H189.875V29.5677H185.405V35.7117H189.977V35.2317H190.078L189.977 35.1357ZM190.994 32.542C190.993 32.5744 190.993 32.607 190.993 32.6397V32.4477C190.993 32.4793 190.993 32.5107 190.994 32.542ZM190.994 32.542C191.044 30.7679 192.451 29.4717 194.447 29.4717C195.361 29.4717 196.275 29.7597 196.885 30.3357L196.479 30.7197C195.971 30.2397 195.259 29.9517 194.548 29.9517C192.923 29.9517 191.805 31.0077 191.805 32.5437C191.805 34.0797 193.024 35.1357 194.548 35.1357C195.259 35.1357 195.971 34.9437 196.479 34.3677L196.885 34.7517C196.275 35.3277 195.463 35.6157 194.447 35.6157C192.55 35.6157 191.046 34.3178 190.994 32.542ZM203.793 35.7117H203.082V32.8317H199.018V35.7117H198.307V29.5677H199.018V32.3517H203.082V29.5677H203.793V35.7117ZM210.803 35.7117H211.412V29.5677H210.701V34.5597L206.536 29.5677H205.927V35.7117H206.638V30.7197L210.803 35.7117ZM213.038 32.6397C213.038 30.8157 214.46 29.4717 216.492 29.4717C218.524 29.4717 219.946 30.8157 219.946 32.6397C219.946 34.4637 218.524 35.8077 216.492 35.8077C214.46 35.8077 213.038 34.4637 213.038 32.6397ZM219.235 32.6397C219.235 31.1997 218.117 30.0477 216.492 30.0477C214.867 30.0477 213.749 31.1037 213.749 32.6397C213.749 34.1757 214.968 35.2317 216.492 35.2317C218.016 35.2317 219.235 34.1757 219.235 32.6397ZM222.181 29.5677H221.47V35.7117H225.839V35.1357H222.181V29.5677ZM226.347 32.6397C226.347 30.8157 227.769 29.4717 229.801 29.4717C231.833 29.4717 233.255 30.8157 233.255 32.6397C233.255 34.4637 231.833 35.8077 229.801 35.8077C227.769 35.8077 226.347 34.4637 226.347 32.6397ZM232.544 32.6397C232.544 31.1997 231.427 30.0477 229.801 30.0477C228.176 30.0477 227.058 31.1037 227.058 32.6397C227.058 34.1757 228.277 35.2317 229.801 35.2317C231.325 35.2317 232.544 34.1757 232.544 32.6397ZM240.062 32.6397H239.35V34.6557C238.842 35.0397 238.233 35.1357 237.623 35.1357C236.099 35.1357 234.88 34.0797 234.88 32.5437C234.88 31.0077 236.099 29.9517 237.725 29.9517C238.436 29.9517 239.147 30.2397 239.655 30.7197L240.062 30.3357C239.452 29.7597 238.639 29.4717 237.623 29.4717C235.592 29.4717 234.169 30.8157 234.169 32.6397C234.169 34.4637 235.592 35.8077 237.623 35.8077C238.538 35.8077 239.452 35.5197 240.062 35.0397V32.6397ZM244.227 33.5997V35.7117H243.515V33.5997L240.874 29.5677H241.585L243.82 33.0237L246.055 29.5677H246.766L244.125 33.5997H244.227ZM0 28.032L8.7369 36H37.6906V0.384024H0V28.032ZM28.2425 15.744C28.6489 13.152 26.5155 11.808 23.6709 10.848H23.7725L24.6868 7.29601L22.4518 6.72001L21.5375 10.176C21.2835 10.128 21.0549 10.08 20.8263 10.032C20.5978 9.98401 20.3692 9.93601 20.1152 9.88801H19.7088L20.6231 6.43201L18.3881 5.85602L17.4738 9.40801H17.169C16.7627 9.31201 16.0515 9.12001 16.0515 9.12001L12.9022 8.35201L12.2926 10.656L13.9181 11.04C14.8324 11.232 14.934 12.288 14.934 12.288L13.9181 16.32L12.3942 21.888C12.2926 22.08 11.9878 22.56 11.3783 22.368L9.75282 21.984L8.63531 24.384L11.5815 25.056C11.7992 25.056 11.9878 25.1111 12.1629 25.1623C12.3145 25.2066 12.4559 25.248 12.5974 25.248C12.8006 25.344 13.2069 25.44 13.2069 25.44L12.2926 28.992L14.5276 29.568L15.442 26.016C16.0515 26.208 16.6611 26.4 17.2706 26.496L16.3563 29.952L18.5913 30.528L19.5056 26.976C23.3661 27.648 26.2107 27.36 27.4298 24.096C28.4457 21.408 27.4298 19.872 25.398 18.912C26.8203 18.528 27.9378 17.664 28.2425 15.744ZM23.0614 22.56C22.4518 24.96 18.3881 24 16.5595 23.52H16.4579C16.3563 23.424 16.0515 23.424 16.0515 23.424L17.2706 18.72C17.4738 18.816 17.677 18.816 17.8802 18.816C17.9968 18.845 18.1206 18.8751 18.2499 18.9065C20.2608 19.3952 23.6341 20.2149 23.0614 22.56ZM18.3231 16.7132L18.2865 16.704V16.608H17.8802L18.9977 12.384C19.2009 12.48 19.3025 12.48 19.5056 12.48C21.1311 12.768 24.382 13.44 23.7725 15.744C23.1678 17.9345 19.8634 17.1015 18.3231 16.7132Z" fill="#FAFAFA"/>
</svg>