<svg width="280" height="56" viewBox="0 0 280 56" fill="none" xmlns="http://www.w3.org/2000/svg">
<g clip-path="url(#clip0_277_2142)">
<path d="M92.8493 20.576H83.4701V44.4736H76.7034V20.576H67.3672V14.1091H92.8493V20.576Z" fill="white"/>
<path d="M95.2521 31.2827H103.775C103.718 30.3121 103.332 29.4699 102.618 28.7561C101.933 28.0422 100.891 27.6853 99.4921 27.6853C98.2357 27.6853 97.2365 28.0565 96.4941 28.7988C95.7517 29.5411 95.3378 30.3692 95.2521 31.2827ZM104.246 36.8075L109.685 38.3493C109.142 40.3193 108.015 41.9468 106.302 43.2316C104.588 44.4879 102.447 45.116 99.8774 45.116C96.7939 45.116 94.1672 44.0881 91.9973 42.0325C89.856 39.9767 88.7852 37.2215 88.7852 33.7667C88.7852 30.4549 89.8274 27.7567 91.9116 25.6725C94.0243 23.5882 96.5227 22.5461 99.4064 22.5461C102.718 22.5461 105.317 23.5169 107.201 25.4583C109.114 27.3712 110.07 30.0408 110.07 33.4671C110.07 34.5519 110.027 35.2229 109.942 35.4799H95.1236C95.1807 36.6504 95.6804 37.6356 96.6226 38.435C97.5647 39.2058 98.6782 39.5913 99.9631 39.5913C102.162 39.5913 103.589 38.6634 104.246 36.8075Z" fill="white"/>
<path d="M121.916 28.5419C120.517 28.5419 119.346 29.0129 118.404 29.9552C117.49 30.8974 117.033 32.1965 117.033 33.8524C117.033 35.4799 117.505 36.7647 118.447 37.7069C119.417 38.649 120.602 39.1202 122.001 39.1202C123.172 39.1202 124.128 38.8203 124.871 38.2208C125.642 37.5927 126.156 36.8361 126.412 35.951L132.151 37.7069C131.637 39.7341 130.481 41.4757 128.682 42.9318C126.912 44.388 124.685 45.116 122.001 45.116C118.804 45.116 116.091 44.0595 113.864 41.9468C111.666 39.8053 110.566 37.1074 110.566 33.8524C110.566 30.569 111.637 27.871 113.779 25.7581C115.948 23.6168 118.618 22.5461 121.787 22.5461C124.557 22.5461 126.827 23.2599 128.597 24.6875C130.367 26.115 131.509 27.871 132.023 29.9552L126.198 31.7111C125.941 30.7974 125.456 30.0408 124.742 29.4413C124.029 28.8416 123.086 28.5419 121.916 28.5419Z" fill="white"/>
<path d="M140.482 31.9681V44.4737H133.973V13.4668H140.482V24.559C141.767 23.2742 143.58 22.6318 145.921 22.6318C148.577 22.6318 150.575 23.4313 151.917 25.0302C153.288 26.6004 153.974 28.6276 153.974 31.1116V44.4737H147.463V32.2251C147.463 31.1116 147.163 30.2265 146.564 29.5698C145.993 28.8845 145.136 28.542 143.994 28.542C142.995 28.542 142.167 28.8702 141.51 29.527C140.882 30.1551 140.539 30.9687 140.482 31.9681Z" fill="white"/>
<path d="M167.067 39.1202C168.408 39.1202 169.536 38.6634 170.45 37.7497C171.391 36.8361 171.864 35.5227 171.864 33.8096C171.864 32.0966 171.391 30.7974 170.45 29.9124C169.536 28.9987 168.408 28.5419 167.067 28.5419C165.753 28.5419 164.626 28.9987 163.683 29.9124C162.742 30.826 162.269 32.125 162.269 33.8096C162.269 35.4941 162.742 36.8075 163.683 37.7497C164.626 38.6634 165.753 39.1202 167.067 39.1202ZM167.067 22.5461C170.293 22.5461 172.976 23.6024 175.118 25.7153C177.288 27.8282 178.373 30.5261 178.373 33.8096C178.373 37.093 177.288 39.8053 175.118 41.9468C172.976 44.0595 170.293 45.116 167.067 45.116C163.869 45.116 161.184 44.0453 159.015 41.904C156.845 39.7625 155.76 37.0645 155.76 33.8096C155.76 30.5547 156.845 27.871 159.015 25.7581C161.184 23.6168 163.869 22.5461 167.067 22.5461Z" fill="white"/>
<path d="M186.931 52.6106H180.422V23.1884H186.717V25.3726C187.202 24.6303 188.002 24.0021 189.115 23.4882C190.257 22.9458 191.542 22.6746 192.969 22.6746C195.996 22.6746 198.395 23.7166 200.164 25.8009C201.964 27.8565 202.863 30.5118 202.863 33.7666C202.863 37.0216 201.906 39.7054 199.993 41.8182C198.109 43.9025 195.683 44.9445 192.713 44.9445C190.028 44.9445 188.101 44.2308 186.931 42.8032V52.6106ZM195.068 37.7496C196.011 36.8074 196.482 35.494 196.482 33.8095C196.482 32.1249 196.011 30.8259 195.068 29.9123C194.154 28.9986 193.013 28.5418 191.642 28.5418C190.301 28.5418 189.158 28.9986 188.216 29.9123C187.302 30.8259 186.845 32.1249 186.845 33.8095C186.845 35.494 187.302 36.8074 188.216 37.7496C189.158 38.6633 190.301 39.1201 191.642 39.1201C193.013 39.1201 194.154 38.6633 195.068 37.7496Z" fill="white"/>
<path d="M209.846 31.2827H218.369C218.313 30.3121 217.927 29.4699 217.212 28.7561C216.528 28.0422 215.485 27.6853 214.087 27.6853C212.831 27.6853 211.83 28.0565 211.089 28.7988C210.346 29.5411 209.932 30.3692 209.846 31.2827ZM218.841 36.8075L224.279 38.3493C223.737 40.3193 222.61 41.9468 220.896 43.2316C219.183 44.4879 217.041 45.116 214.471 45.116C211.388 45.116 208.761 44.0881 206.592 42.0325C204.45 39.9767 203.379 37.2215 203.379 33.7667C203.379 30.4549 204.422 27.7567 206.506 25.6725C208.619 23.5882 211.118 22.5461 214.001 22.5461C217.312 22.5461 219.911 23.5169 221.795 25.4583C223.708 27.3712 224.665 30.0408 224.665 33.4671C224.665 34.5519 224.623 35.2229 224.536 35.4799H209.718C209.775 36.6504 210.274 37.6356 211.217 38.435C212.159 39.2058 213.273 39.5913 214.558 39.5913C216.755 39.5913 218.184 38.6634 218.841 36.8075Z" fill="white"/>
<path d="M247.647 13.4668V40.662C247.647 41.9469 247.703 43.2173 247.818 44.4737H241.564C241.451 43.7883 241.393 43.1032 241.393 42.4179C240.88 43.1602 240.108 43.7741 239.08 44.2595C238.081 44.7163 236.954 44.9447 235.698 44.9447C232.671 44.9447 230.158 43.9026 228.16 41.8184C226.161 39.7055 225.162 37.0217 225.162 33.7668C225.162 30.569 226.132 27.9281 228.074 25.8438C230.016 23.731 232.486 22.6747 235.483 22.6747C238.396 22.6747 240.308 23.4027 241.222 24.8588V13.4668H247.647ZM233.085 29.9125C232.171 30.826 231.714 32.1251 231.714 33.8096C231.714 35.4941 232.171 36.8076 233.085 37.7497C234.027 38.6634 235.169 39.1202 236.51 39.1202C237.853 39.1202 238.98 38.6634 239.895 37.7497C240.836 36.8076 241.308 35.4941 241.308 33.8096C241.308 32.1251 240.836 30.826 239.895 29.9125C238.98 28.9987 237.853 28.542 236.51 28.542C235.169 28.542 234.027 28.9987 233.085 29.9125Z" fill="white"/>
<path d="M257.881 44.4736H251.371V23.1885H257.881V44.4736ZM251.928 19.3769C251.185 18.6346 250.814 17.7352 250.814 16.6787C250.814 15.6224 251.185 14.723 251.928 13.9807C252.67 13.2384 253.555 12.8672 254.583 12.8672C255.64 12.8672 256.539 13.2384 257.282 13.9807C258.052 14.723 258.438 15.6224 258.438 16.6787C258.438 17.7352 258.052 18.6346 257.282 19.3769C256.539 20.1192 255.64 20.4904 254.583 20.4904C253.555 20.4904 252.67 20.1192 251.928 19.3769Z" fill="white"/>
<path d="M260.158 38.6062C260.158 36.8075 260.744 35.3656 261.914 34.2807C263.084 33.1672 264.597 32.4677 266.453 32.1822L271.464 31.4112C272.492 31.2685 273.006 30.7831 273.006 29.9552C273.006 29.2985 272.72 28.7561 272.15 28.3278C271.606 27.871 270.851 27.6424 269.88 27.6424C268.794 27.6424 267.924 27.9567 267.267 28.5848C266.639 29.1843 266.297 29.9124 266.24 30.7689L260.587 29.6126C260.729 27.8424 261.601 26.2293 263.199 24.7731C264.826 23.2884 267.067 22.5461 269.922 22.5461C273.149 22.5461 275.519 23.317 277.032 24.8588C278.573 26.4005 279.345 28.3706 279.345 30.7689V41.1758C279.345 42.5177 279.43 43.617 279.601 44.4736H273.734C273.592 43.9026 273.52 43.1031 273.52 42.0753C272.292 44.0739 270.294 45.0731 267.524 45.0731C265.269 45.0731 263.47 44.445 262.129 43.1888C260.815 41.904 260.158 40.3764 260.158 38.6062ZM269.109 40.3622C270.223 40.3622 271.151 40.0339 271.892 39.3772C272.636 38.7205 273.006 37.6356 273.006 36.1222V35.18L268.98 35.8225C267.382 36.0794 266.582 36.8646 266.582 38.178C266.582 38.7775 266.781 39.2915 267.181 39.7197C267.609 40.148 268.252 40.3622 269.109 40.3622Z" fill="white"/>
<path d="M36.5714 31.8801C36.5717 32.2497 36.6692 32.6127 36.854 32.9329C37.039 33.2528 37.3047 33.5186 37.6248 33.7034L44.2552 37.5308C44.5752 37.7153 44.9381 37.8123 45.3074 37.8121C45.6767 37.812 46.0395 37.7145 46.3592 37.5299C46.679 37.3451 46.9446 37.0794 47.1291 36.7595C47.3137 36.4397 47.4109 36.0767 47.4109 35.7074V15.535C47.4109 15.166 47.3139 14.8033 47.1294 14.4837C46.9449 14.164 46.6794 13.8985 46.3598 13.714L28.8899 3.63337C28.5701 3.44899 28.2075 3.35198 27.8383 3.35205C27.4693 3.35213 27.1067 3.44929 26.7869 3.63379C26.4672 3.8183 26.2016 4.08364 26.0169 4.4032C25.8321 4.72276 25.7347 5.08531 25.7344 5.45444V13.1114C25.7345 13.4808 25.8317 13.8436 26.0162 14.1636C26.2007 14.4835 26.4659 14.7495 26.7855 14.9347L35.5182 19.9717C35.8381 20.1559 36.1038 20.4212 36.2883 20.7411C36.4729 21.0609 36.5698 21.4236 36.5693 21.7928L36.5714 31.8801Z" fill="#82A5FF"/>
<path d="M23.6265 29.2691V39.3564C23.6263 39.7259 23.7233 40.0888 23.9078 40.4089C24.0923 40.729 24.3578 40.9948 24.6776 41.1797L31.308 45.0071C31.628 45.1916 31.9909 45.2886 32.3602 45.2885C32.7295 45.2882 33.0923 45.1909 33.4121 45.0061C33.7319 44.8214 33.9974 44.5556 34.182 44.2358C34.3665 43.916 34.4637 43.5531 34.4637 43.1838V23.0114C34.4635 22.6418 34.3661 22.2787 34.1811 21.9587C33.9963 21.6386 33.7304 21.3728 33.4103 21.188L15.9428 11.103C15.623 10.9179 15.2602 10.8203 14.8909 10.8201C14.5215 10.8198 14.1585 10.9169 13.8386 11.1015C13.5187 11.2861 13.253 11.5518 13.0684 11.8718C12.8838 12.1917 12.7868 12.5547 12.7871 12.9241V20.5811C12.7866 20.9503 12.8835 21.3131 13.0681 21.6329C13.2526 21.9525 13.5183 22.218 13.8382 22.4022L22.5753 27.4458C22.895 27.6309 23.1605 27.8968 23.345 28.2168C23.5295 28.5368 23.6265 28.8997 23.6265 29.2691Z" fill="#0077CC"/>
<path d="M20.4633 28.6641L2.99354 18.5858C2.67358 18.4013 2.31071 18.3043 1.9414 18.3044C1.57207 18.3046 1.20931 18.4019 0.889534 18.5867C0.569758 18.7715 0.304237 19.0371 0.11964 19.3571C-0.0649572 19.6769 -0.162129 20.0397 -0.162109 20.409V40.5837C-0.162189 40.9528 -0.065088 41.3154 0.119428 41.6351C0.303945 41.9548 0.569372 42.2202 0.889024 42.4047L11.7284 48.6536L18.3589 52.4809C18.6786 52.666 19.0414 52.7637 19.4106 52.7638C19.7801 52.7641 20.143 52.6671 20.463 52.4825C20.783 52.2978 21.0486 52.0322 21.2332 51.7122C21.4177 51.3923 21.5147 51.0292 21.5144 50.6599V30.4875C21.5143 30.1182 21.4171 29.7552 21.2326 29.4353C21.0481 29.1153 20.7828 28.8494 20.4633 28.6641Z" fill="#004ED6"/>
</g>
<defs>
<clipPath id="clip0_277_2142">
<rect width="280" height="56" fill="white"/>
</clipPath>
</defs>
</svg>